:SAMPLES-PER-SECOND 30
:FULLY-SPECIFIED
:DEGREES
341
root  32.5182 38.4621 3.83159 168.256 77.5751 173.446
RightUpLeg  10.3026 7.56598 1.87139
RightLeg  19.535 29.0163 6.22632
RightFoot  -17.7209 -0.605089 -8.70469
RightToes  -3.0268e-009 0 -3.6325e-017
Spine  9.74261 1.31722 4.17401
Spine1  5.69041 2.55325 -3.62421
HEad  -20.4076 -6.9698 0.216273
LeftShoulder1  -0.440028 4.62693 -33.0389
LeftArm  -0.236169 16.4728 -32.0926
LeftForeArm  31.5633 -12.0154 -7.78378
LeftHand  -0.0607344 8.82602 -0.442462
RightShoulder  -0.922941 -6.14007 28.4389
RightArm  14.4571 26.9855 47.1421
RightForeArm  11.8828 37.9689 8.01916
RightHand  -0.733605 6.47828 -7.49473
LeftUpLeg  -18.4883 -1.55813 -0.225336
LeftLeg  8.15076 -4.65859 0.439669
LeftFoot  -1.24018 0.421973 -4.66805
LeftToes  2.52475e-009 -1.26109e-010 3.16044e-011
342
root  33.839 38.157 3.33241 167.612 79.6212 172.999
RightUpLeg  12.3112 12.0869 2.90768
RightLeg  20.554 25.497 7.01186
RightFoot  -19.1436 -0.774743 -9.44126
RightToes  -3.0268e-009 0 -3.6325e-017
Spine  8.44593 1.39522 4.5642
Spine1  6.06529 2.81255 -4.2371
HEad  -19.7963 -6.20162 0.31521
LeftShoulder1  -0.439512 4.62351 -33.0631
LeftArm  -3.58317 18.4954 -32.3385
LeftForeArm  35.7383 -9.94869 -7.53904
LeftHand  -0.0382607 8.92118 0.302634
RightShoulder  -0.953205 -6.21487 28.6004
RightArm  16.3907 25.8478 46.888
RightForeArm  10.3477 36.3633 7.64494
RightHand  -0.718843 6.5774 -7.29692
LeftUpLeg  -18.3258 -1.82627 -0.0290416
LeftLeg  10.6765 -1.74527 0.491111
LeftFoot  -0.396682 0.346937 -3.66379
LeftToes  2.52475e-009 -1.26109e-010 3.16044e-011
343
root  35.1675 37.9233 2.85741 163.009 81.7331 168.219
RightUpLeg  13.5118 16.0407 2.79514
RightLeg  22.228 22.1116 8.84944
RightFoot  -19.8985 -0.890882 -10.0968
RightToes  -3.0268e-009 0 -3.6325e-017
Spine  7.20707 2.13768 3.88524
Spine1  6.24299 3.55188 -4.32998
HEad  -19.3826 -6.46841 0.490521
LeftShoulder1  -0.583904 4.96204 -33.9122
LeftArm  -6.16584 18.9965 -32.3085
LeftForeArm  38.3945 -8.13723 -7.0042
LeftHand  -0.0682592 8.64424 -0.622265
RightShoulder  -1.04712 -6.42636 29.2735
RightArm  18.0138 23.4286 45.3233
RightForeArm  8.75029 34.7764 7.29441
RightHand  -0.658628 6.24029 -6.89255
LeftUpLeg  -18.4013 -1.34235 -0.496811
LeftLeg  14.0778 -0.933501 0.211856
LeftFoot  3.72984 0.160541 -1.43129
LeftToes  2.52475e-009 -1.26109e-010 3.16044e-011
344
root  36.4707 37.7025 2.37894 152.446 83.3842 158.1
RightUpLeg  13.7792 14.4996 0.0567267
RightLeg  27.1088 25.0992 13.2091
RightFoot  -19.3078 -0.83151 -10.1952
RightToes  -3.0268e-009 0 -3.6325e-017
Spine  7.35475 2.72821 2.63846
Spine1  5.78283 4.14976 -4.66762
HEad  -19.2043 -6.00198 1.04704
LeftShoulder1  -0.709445 5.26106 -34.1431
LeftArm  -3.48003 20.6253 -31.9409
LeftForeArm  34.5485 -10.2328 -7.4664
LeftHand  -0.113807 9.58357 -1.64494
RightShoulder  -1.17915 -6.67583 30.6738
RightArm  20.2493 20.0771 43.7979
RightForeArm  7.58905 32.4805 6.7524
RightHand  -0.598405 6.26324 -6.28729
LeftUpLeg  -18.0928 0.185171 -1.60033
LeftLeg  18.4192 -0.924258 -0.0195921
LeftFoot  5.48007 -0.136984 0.770613
LeftToes  2.52475e-009 -1.26109e-010 3.16044e-011
345
root  37.7299 37.5132 1.90753 140.292 83.654 146.994
RightUpLeg  12.6498 11.0717 -3.65507
RightLeg  36.2558 28.2438 20.3489
RightFoot  -16.636 -0.446312 -6.74943
RightToes  -3.0268e-009 0 -3.6325e-017
Spine  8.57563 2.63858 1.11251
Spine1  4.96949 3.91854 -4.80386
HEad  -19.3288 -5.71878 1.2831
LeftShoulder1  -0.863649 5.6027 -34.9474
LeftArm  -2.66774 20.6822 -31.9436
LeftForeArm  31.9507 -10.8432 -7.50073
LeftHand  -0.0708217 9.53103 -0.479482
RightShoulder  -1.28839 -6.8594 31.8288
RightArm  23.4607 16.4045 43.2471
RightForeArm  6.04285 28.2003 5.69078
RightHand  -0.607029 5.76726 -6.60604
LeftUpLeg  -17.2941 0.457126 -3.08235
LeftLeg  23.6721 -0.109235 0.275983
LeftFoot  1.17197 -0.232974 2.05591
LeftToes  2.52475e-009 -1.26109e-010 3.16044e-011
346
root  38.7863 37.3789 1.52848 123.193 83.7349 130.129
RightUpLeg  8.28258 8.4789 -8.16793
RightLeg  47.6168 28.3318 28.9411
RightFoot  -12.2955 -0.0714844 6.95512
RightToes  -3.0268e-009 0 -3.6325e-017
Spine  8.90482 2.87372 -0.318425
Spine1  5.48921 4.15809 -6.66747
HEad  -20.4112 -5.81917 1.59373
LeftShoulder1  -0.756077 5.37401 -34.2542
LeftArm  -3.34887 19.6569 -33.8796
LeftForeArm  31.8725 -11.0148 -7.3323
LeftHand  -0.0459921 9.04801 0.0891739
RightShoulder  -1.48624 -7.21404 33.5498
RightArm  26.9738 13.2545 43.0968
RightForeArm  3.6479 22.0221 5.14101
RightHand  -0.446473 4.79586 -5.38969
LeftUpLeg  -16.4684 1.09642 -4.7228
LeftLeg  26.5202 0.688765 0.729351
LeftFoot  -1.69422 -0.254279 3.1185
LeftToes  2.52475e-009 -1.26109e-010 3.16044e-011
